<?xml version="1.0" standalone="no"?><!DOCTYPE svg PUBLIC "-//W3C//DTD SVG 1.1//EN" "http://www.w3.org/Graphics/SVG/1.1/DTD/svg11.dtd"><svg t="1757160595834" class="icon" viewBox="0 0 1024 1024" version="1.1" xmlns="http://www.w3.org/2000/svg" p-id="11821" xmlns:xlink="http://www.w3.org/1999/xlink" width="200" height="200"><path d="M298.5 410.8m-138.5 0a138.5 138.5 0 1 0 277 0 138.5 138.5 0 1 0-277 0Z" fill="#FEA832" p-id="11822"></path><path d="M74.6 469.9l32.4 44.4c30.7 38.4 129.6 98.6 211.7 84.1 18.6-3.3 36.8-5.7 52.7-12 7.4-3.1 14.8-6.2 22.2-9.2 8 11.1 18.8 22.4 27 28.6-31.5 1.3-70.9 18.8-97.3 29.6-10.8 4.6-21.6 9.2-32.4 13.9-10.2-3.7-20.3-7.4-30.5-11.1-27.1-8.6-54.2-17.3-81.3-25.9-16.6-5.2-33.8-21-60.1-13.9-16.7 4.5-24.9 11.7-40.1 25.5 0-0.6-6.8-10.9-6.8-11.5-5-27.7-1.9-110.2 2.5-142.5z" fill="#EF4E50" p-id="11823"></path><path d="M298.5 410.8m-85.7 0a85.7 85.7 0 1 0 171.4 0 85.7 85.7 0 1 0-171.4 0Z" fill="#EDEDED" p-id="11824"></path><path d="M349.2 727.3h110.4v114.1H349.2z" fill="#FEA832" p-id="11825"></path><path d="M512.1 757.1v169.2H386.9c-22.2-0.6-44.3-1.2-66.5-1.7C239.1 908 183.2 854.7 165 775.2c39.5 15 101.7 44 156.3 31.1 20.9-4.9 36.5-15.8 55.3-21.6 0.3 3.3 1.2 9.4 5.1 15.6 1.7 2.7 6.6 10.5 15.8 13.2 14.1 4.1 26.6-7.3 27.4-8.1 9.7-9.2 12.6-24.4 7.8-38.8 19.5-9.8 52.4-9.5 79.4-9.5z" fill="#EF4E4F" p-id="11826"></path><path d="M512 636c0 35.2-0.7 87.1-0.7 122.3-47.9-0.6-88.1 8-123 21.8-26.4 10.4-47.7 23.7-79.7 29.6-49.8 9.3-121.3-24.3-158.5-37.5-47.9-17-89-24.9-99.6-79.3-10.6-54.4 42.4-104.5 93.5-94.2 47.3 15.7 94.7 31.4 142 47.1 10.1-4.4 20.2-8.7 30.3-13.1 26.3-11.3 72.9-24.3 104.1-27 35.9 19.5 34.3 24.7 91.6 30.3z" fill="#EDEDED" p-id="11827"></path><path d="M511.9 4v108.4c-35.4 0.3-36.2 54.7 0 53.8v109.2c-11.6-1.4-23.1-2.9-34.7-4.3-41.3-12.2-74.1-39-90.2-76.3C345.8 99.3 416.5 3.2 511.9 4z" fill="#92B83D" p-id="11828"></path><path d="M376.8 113.8c-5 38.1 2.6 74.1 21.2 98.9 26.5 35.4 63.3 58.3 114.1 58.5 0 53.1-0.1 116.5-0.1 169.6-9.9 0.8-19.9 1.6-29.8 2.5 0-1.4 0.3-13 0.3-14.4-0.3-27.9-0.3-63.9-7.6-84.8-22-62.4-66.7-105.2-133.9-122.1-38.4-9.7-97.8 1.5-120.4-23.7l22-22.9c9.6-7.3 19.2-14.7 28.8-22 29-18.5 79.1-45.2 105.4-39.6z" fill="#EF4F50" p-id="11829"></path><path d="M488.6 442.7c-24.7 1.3-46.1 13.6-61.9 24.7H424c2.9-14.8 8.6-28.8 11.5-45.9 8.2-49.6-27-99.8-51.3-118.4-62.6-47.9-152.8-33.4-195.3 23-70.5 93.7-4.9 204.8 93.7 221.8 30.2 5.2 62.1-4.9 79.5-15 8-5 15.9-10 23.9-15v2.7c-7.7 19.7 6.4 43 10.4 61.2-22.1 5.1-50.9 17.5-77.6 21.9-52.2 8.7-102.1-10.9-134.3-27.4C115 540.6 68 480.9 51.2 392.4c-5-26-1.8-59.5-1.8-88.4V122.9c0-22.6-4.3-55.4 8.8-65.4 13.2-10 33.9-6.1 42.4 5.3 28.1 37.7 46.6 84 83.1 113.1 19.9 15.9 42.1 29.9 70.7 37.1 30.2 7.7 70.2 3 98.1 11.5 89.3 27.2 144.6 100.3 136.1 218.2z" fill="#FBE786" p-id="11830"></path><path d="M512 440.9V636c-65 0.9-153-52.6-123.9-123.8 18.2-44.6 61.6-71.6 123.9-71.3z" fill="#FFE1B2" p-id="11831"></path><path d="M298.5 410.8m-30 0a30 30 0 1 0 60 0 30 30 0 1 0-60 0Z" fill="#FEA832" p-id="11832"></path><path d="M512 112.2c-15.1 0.2-27.2 12.4-27.2 27.5S497 167 512 167.2v-55z" fill="#EDEDED" p-id="11833"></path><path d="M725.9 410.7m-138.5 0a138.5 138.5 0 1 0 277 0 138.5 138.5 0 1 0-277 0Z" fill="#DD8F31" p-id="11834"></path><path d="M952.4 612.1c0 0.6-6.8 10.9-6.8 11.5-15.2-13.8-23.5-20.9-40.1-25.5-26.3-7.1-43.4 8.7-60.1 13.9-27.1 8.6-54.2 17.3-81.3 25.9-10.2 3.7-20.3 7.4-30.5 11.1-10.8-4.6-21.6-9.2-32.4-13.9-26.4-10.8-65.7-28.3-97.3-29.6 8.2-6.2 19-17.5 27-28.6 7.4 3.1 14.8 6.2 22.2 9.2 15.9 6.3 34.1 8.7 52.7 12 82.1 14.4 180.9-45.8 211.6-84.2 10.8-14.8 21.6-29.6 32.3-44.4 4.6 32.5 7.6 115 2.7 142.6z" fill="#D24A4A" p-id="11835"></path><path d="M725.9 410.7m-85.7 0a85.7 85.7 0 1 0 171.4 0 85.7 85.7 0 1 0-171.4 0Z" fill="#D3D2CF" p-id="11836"></path><path d="M675.325 841.366l-110.4 0.05-0.051-114.1 110.4-0.05z" fill="#DD8F31" p-id="11837"></path><path d="M591.9 766.6c-4.8 14.4-1.9 29.7 7.8 38.8 0.9 0.8 13.3 12.2 27.4 8.1 9.2-2.7 14.1-10.6 15.8-13.2 3.9-6.2 4.8-12.3 5.1-15.6 18.7 5.8 34.4 16.6 55.3 21.6 54.6 12.9 116.7-16.1 156.2-31.1-18.2 79.5-74.1 132.8-155.3 149.4l-66.5 1.8c-41.7 0-83.5 0-125.2 0.1 0-56.4-0.1-112.8-0.1-169.2 27-0.2 60-0.5 79.5 9.3z" fill="#D24A4A" p-id="11838"></path><path d="M603.9 605.7c31.2 2.7 77.8 15.7 104.1 27 10.1 4.4 20.2 8.7 30.3 13.1 47.3-15.7 94.7-31.4 142-47.2 51.1-10.3 104.2 39.7 93.6 94.1-10.6 54.5-51.6 62.3-99.6 79.4-37.2 13.3-108.7 46.9-158.5 37.6-31.9-6-53.3-19.2-79.7-29.6-34.9-13.8-75.1-22.4-123-21.7 0-35.2-0.7-87.1-0.7-122.3 57.4-5.8 55.8-10.9 91.5-30.4z" fill="#D3D2CF" p-id="11839"></path><path d="M637.2 194.7c-16.1 37.3-48.8 64.1-90.1 76.3-11.6 1.4-23.1 2.9-34.7 4.4V166.2c36.2 1 35.4-53.4 0-53.8V4c95.3-0.9 166 95.3 124.8 190.7z" fill="#739130" p-id="11840"></path><path d="M752.8 153.3c9.6 7.3 19.2 14.7 28.8 22l22 22.9c-22.6 25.3-81.9 14.1-120.4 23.8-67.2 16.9-111.9 59.7-133.9 122.1-7.3 20.8-7.3 56.9-7.6 84.8 0 1.4 0.3 13 0.3 14.4-9.9-0.8-19.9-1.6-29.8-2.5 0-53.1-0.2-116.5-0.2-169.6 50.9-0.2 87.6-23.2 114.1-58.6 18.6-24.8 26.2-60.8 21.2-98.9 26.4-5.6 76.5 21.1 105.5 39.6z" fill="#D24A4A" p-id="11841"></path><path d="M671.8 224.4c27.9-8.5 67.9-3.9 98.1-11.5 28.6-7.3 50.7-21.2 70.7-37.1 36.4-29.1 55-75.4 83-113.1 8.5-11.4 29.2-15.3 42.4-5.3 13.2 9.9 8.9 42.7 8.9 65.4 0 60.4 0.1 120.8 0.1 181.1 0 28.9 3.2 62.3-1.7 88.4-16.8 88.5-63.7 148.2-133.3 183.9-32.2 16.5-82.1 36.1-134.3 27.5-26.7-4.4-55.5-16.8-77.6-21.9 4-18.2 18.1-41.5 10.4-61.2v-2.7c8 5 15.9 10 23.9 15 17.5 10.1 49.3 20.2 79.5 15 98.6-17 164.1-128.2 93.6-221.8-42.5-56.4-132.7-70.8-195.3-22.9-24.3 18.6-59.5 68.8-51.2 118.4 2.8 17.1 8.6 31.1 11.5 45.9h-2.7c-15.7-11.1-37.1-23.5-61.9-24.7-8.7-118 46.6-191.1 135.9-218.4z" fill="#FFCF65" p-id="11842"></path><path d="M636.3 512.1c29.2 71.2-58.8 124.8-123.9 123.9 0-65-0.1-130.1-0.1-195.1 62.4-0.3 105.8 26.7 124 71.2z" fill="#F2D5AD" p-id="11843"></path><path d="M725.9 410.7m-30 0a30 30 0 1 0 60 0 30 30 0 1 0-60 0Z" fill="#DD8F31" p-id="11844"></path><path d="M512.2 112.2c15.1 0.1 27.2 12.4 27.2 27.5s-12.2 27.4-27.2 27.5v-55z" fill="#D3D2CF" p-id="11845"></path></svg>